HIERARCHY
ROOT Hips
{
	OFFSET -0.001795 -0.223333 0.028219
	CHANNELS 6 Xposition Yposition Zposition Zrotation Yrotation Xrotation 
	JOINT LeftUpLeg
	{
		OFFSET 0.069520 -0.091406 -0.006815
		CHANNELS 3 Zrotation Yrotation Xrotation
		JOINT LeftLeg
		{
			OFFSET 0.034277 -0.375199 -0.004496
			CHANNELS 3 Zrotation Yrotation Xrotation
			JOINT LeftFoot
			{
				OFFSET -0.013596 -0.397961 -0.043693
				CHANNELS 3 Zrotation Yrotation Xrotation
				JOINT LeftToe
				{
					OFFSET 0.026358 -0.055791 0.119288
					CHANNELS 3 Zrotation Yrotation Xrotation
					End Site
					{
						OFFSET 0.000000 0.000000 0.000000
					}
				}
			}
		}
	}
	JOINT RightUpLeg
	{
		OFFSET -0.067670 -0.090522 -0.004320
		CHANNELS 3 Zrotation Yrotation Xrotation
		JOINT RightLeg
		{
			OFFSET -0.038290 -0.382569 -0.008850
			CHANNELS 3 Zrotation Yrotation Xrotation
			JOINT RightFoot
			{
				OFFSET 0.015774 -0.398415 -0.042312
				CHANNELS 3 Zrotation Yrotation Xrotation
				JOINT RightToe
				{
					OFFSET -0.025372 -0.048144 0.123348
					CHANNELS 3 Zrotation Yrotation Xrotation
					End Site
					{
						OFFSET 0.000000 0.000000 0.000000
					}
				}
			}
		}
	}
	JOINT Spine
	{
		OFFSET -0.002533 0.108963 -0.026696
		CHANNELS 3 Zrotation Yrotation Xrotation
		JOINT Spine1
		{
			OFFSET 0.005487 0.135180 0.001092
			CHANNELS 3 Zrotation Yrotation Xrotation
			JOINT Spine2
			{
				OFFSET 0.001457 0.052922 0.025425
				CHANNELS 3 Zrotation Yrotation Xrotation
				JOINT Neck
				{
					OFFSET -0.002778 0.213870 -0.042857
					CHANNELS 3 Zrotation Yrotation Xrotation
					JOINT Head
					{
						OFFSET 0.005152 0.064970 0.051349
						CHANNELS 3 Zrotation Yrotation Xrotation
						End Site
						{
							OFFSET 0.000000 0.000000 0.000000
						}
					}
				}
				JOINT LeftShoulder
				{
					OFFSET 0.078845 0.121749 -0.034090
					CHANNELS 3 Zrotation Yrotation Xrotation
					JOINT LeftArm
					{
						OFFSET 0.090977 0.030469 -0.008868
						CHANNELS 3 Zrotation Yrotation Xrotation
						JOINT LeftForeArm
						{
							OFFSET 0.259612 -0.012772 -0.027456
							CHANNELS 3 Zrotation Yrotation Xrotation
							JOINT LeftHand
							{
								OFFSET 0.249234 0.008986 -0.001171
								CHANNELS 3 Zrotation Yrotation Xrotation
								End Site
								{
									OFFSET 0.000000 0.000000 0.000000
								}
							}
						}
					}
				}
				JOINT RightShoulder
				{
					OFFSET -0.081759 0.118833 -0.038615
					CHANNELS 3 Zrotation Yrotation Xrotation
					JOINT RightArm
					{
						OFFSET -0.096012 0.032551 -0.009143
						CHANNELS 3 Zrotation Yrotation Xrotation
						JOINT RightForeArm
						{
							OFFSET -0.253742 -0.013329 -0.021401
							CHANNELS 3 Zrotation Yrotation Xrotation
							JOINT RightHand
							{
								OFFSET -0.255298 0.007772 -0.005559
								CHANNELS 3 Zrotation Yrotation Xrotation
								End Site
								{
									OFFSET 0.000000 0.000000 0.000000
								}
							}
						}
					}
				}
			}
		}
	}
}
MOTION
Frames: 13
Frame Time: 0.050000
-0.096720 0.947362 -0.088905 -0.262947 -5.375245 4.463403 14.454145 0.067183 -4.083785 -4.180251 0.494035 -2.718809 10.559118 20.600802 19.297853 0.000000 0.000000 0.000000 -7.327305 0.894944 -13.819543 5.399614 -0.505503 9.745033 -5.732879 -16.431009 13.422309 0.000000 0.000000 0.000000 4.850793 -1.581060 19.671658 8.275198 -1.458323 -23.531384 -0.346425 -5.547709 22.922830 -0.452488 0.573327 -27.665550 0.000000 0.000000 0.000000 -29.725038 -11.323711 9.109329 -46.762424 -23.173897 0.536772 -1.987881 -40.479883 3.491348 0.000000 0.000000 0.000000 11.394824 21.337852 7.568338 44.086090 25.348899 3.145469 -21.721149 45.476072 -7.928406 0.000000 0.000000 0.000000 
-0.096269 0.947470 -0.086435 -0.203388 -5.715268 3.971457 14.370327 0.077189 -3.531137 -4.213339 0.503125 -2.030199 10.498873 20.521432 18.647075 0.000000 0.000000 0.000000 -7.580765 0.842104 -13.047946 5.516744 -0.517932 9.666878 -5.190924 -15.427151 12.801299 0.000000 0.000000 0.000000 4.816839 -1.482704 18.611340 8.440370 -1.489856 -23.692929 -0.578667 -6.078219 23.145579 -1.113967 0.802195 -27.185580 0.000000 0.000000 0.000000 -29.145001 -10.510218 8.766557 -47.322667 -22.148273 0.098704 -2.883466 -41.578475 4.064895 0.000000 0.000000 0.000000 12.252705 19.678749 6.686724 45.048877 21.402754 1.873335 -23.182925 52.837578 -10.465714 0.000000 0.000000 0.000000 
-0.094852 0.947321 -0.083535 -0.154813 -5.857157 3.435318 14.292933 0.074946 -2.817177 -4.323008 0.518847 -1.610678 10.541946 20.603769 18.063136 0.000000 0.000000 0.000000 -7.672144 0.806950 -12.529791 5.694918 -0.545275 9.860262 -5.109378 -15.264715 12.631160 0.000000 0.000000 0.000000 4.791898 -1.394897 17.569531 8.694539 -1.564641 -23.632084 -0.699289 -6.936541 23.266695 -1.725357 0.990737 -27.043536 0.000000 0.000000 0.000000 -29.033602 -9.715441 8.575825 -47.886541 -21.655578 -0.146381 -3.422660 -42.297391 4.476477 0.000000 0.000000 0.000000 12.890223 17.913020 5.666247 45.924856 17.747475 0.655263 -25.164927 59.373845 -13.591825 0.000000 0.000000 0.000000 
-0.092300 0.947290 -0.080288 -0.053944 -6.278390 2.955181 14.021188 0.084390 -2.239130 -4.338110 0.530745 -0.662053 10.500888 20.562725 17.129328 0.000000 0.000000 0.000000 -7.989986 0.766211 -11.956361 5.801610 -0.552584 9.854815 -4.715417 -14.491648 11.980800 0.000000 0.000000 0.000000 4.596050 -1.275028 16.549393 8.852010 -1.615627 -23.601494 -0.944277 -7.792628 23.646468 -1.980474 0.947120 -26.745322 0.000000 0.000000 0.000000 -28.487045 -8.914077 8.402451 -48.633872 -21.111609 -0.424343 -4.261255 -42.474770 4.976924 0.000000 0.000000 0.000000 13.514004 16.314349 4.648683 47.206792 14.187974 -0.585641 -27.527882 66.020067 -17.590929 0.000000 0.000000 0.000000 
-0.088786 0.946895 -0.076774 -0.133045 -6.729035 2.522304 14.087880 0.092707 -1.283994 -4.500785 0.555484 -0.663391 10.699197 20.843031 16.734299 0.000000 0.000000 0.000000 -8.014032 0.741336 -11.315184 5.808349 -0.543085 9.530523 -4.339906 -13.842754 11.904207 0.000000 0.000000 0.000000 4.329450 -1.155348 15.572162 9.030756 -1.685676 -23.446327 -0.971156 -8.877289 23.803057 -2.072628 0.785810 -26.735295 0.000000 0.000000 0.000000 -28.387968 -7.874645 8.219026 -49.392610 -20.419473 -0.790924 -5.241535 -42.543917 5.535238 0.000000 0.000000 0.000000 13.837375 14.524499 3.470251 48.313305 10.893215 -1.791660 -28.365392 71.619266 -20.838812 0.000000 0.000000 0.000000 
-0.084280 0.946857 -0.073346 -0.202296 -7.440736 2.012504 13.967220 0.113892 -0.338716 -4.469245 0.561915 -0.354709 11.022892 21.271583 16.616596 0.000000 0.000000 0.000000 -7.976838 0.718894 -10.557280 5.542931 -0.482146 9.258865 -3.703344 -12.713794 11.673979 0.000000 0.000000 0.000000 4.007124 -1.036139 14.725559 9.405302 -1.796744 -23.371003 -1.381560 -9.743066 24.333235 -2.117782 0.595475 -26.485305 0.000000 0.000000 0.000000 -28.204468 -7.148303 8.198381 -49.528946 -19.775085 -1.196380 -5.908573 -42.902130 5.987590 0.000000 0.000000 0.000000 14.482201 13.267966 2.504378 49.009673 8.062600 -2.861340 -30.137438 76.609985 -24.879819 0.000000 0.000000 0.000000 
-0.078799 0.946573 -0.070110 -0.410737 -8.322990 1.581470 14.090955 0.145676 0.675282 -4.665565 0.597458 -0.295044 11.324133 21.678219 16.387824 0.000000 0.000000 0.000000 -7.892257 0.710426 -10.010062 5.279192 -0.420531 9.031309 -3.161947 -11.869910 11.859989 0.000000 0.000000 0.000000 3.837174 -0.964025 14.246345 9.763143 -1.894374 -23.368393 -1.723835 -10.423458 24.525323 -2.164837 0.439444 -26.633607 0.000000 0.000000 0.000000 -28.105831 -5.980881 7.860284 -50.095809 -18.985516 -1.610977 -6.723066 -43.550179 6.619430 0.000000 0.000000 0.000000 14.938965 11.706765 1.391551 49.401262 5.516623 -3.799058 -29.052662 81.105229 -26.673325 0.000000 0.000000 0.000000 
-0.072271 0.946409 -0.067383 -0.526784 -8.973955 1.082410 13.934759 0.167876 1.673874 -5.004837 0.650489 -0.283330 11.690715 22.239671 15.864559 0.000000 0.000000 0.000000 -7.772366 0.690052 -9.343239 4.653295 -0.308658 8.899617 -2.653743 -10.900645 11.446044 0.000000 0.000000 0.000000 3.637963 -0.893301 13.723304 9.936265 -1.951652 -23.350572 -1.982354 -10.997903 24.883996 -2.109891 0.243475 -26.340133 0.000000 0.000000 0.000000 -28.272751 -5.311383 7.815946 -50.225836 -17.949864 -2.182082 -7.278971 -44.811547 7.245066 0.000000 0.000000 0.000000 15.535801 10.648721 0.533841 49.385952 3.398707 -4.549030 -32.901923 84.895065 -32.562936 0.000000 0.000000 0.000000 
-0.065001 0.946045 -0.065136 -0.762227 -9.316633 0.893526 13.969368 0.177734 2.306075 -5.078624 0.661740 -0.479496 11.886254 22.533661 15.721926 0.000000 0.000000 0.000000 -7.747898 0.681820 -9.059433 4.430879 -0.267258 8.875851 -2.373824 -10.416121 11.422020 0.000000 0.000000 0.000000 3.602444 -0.860865 13.302446 10.210194 -2.037822 -23.224192 -2.316714 -11.564834 24.948980 -1.829832 -0.033556 -26.387081 0.000000 0.000000 0.000000 -28.402094 -4.364908 7.502754 -50.623879 -17.371064 -2.505286 -7.357875 -46.643739 7.874644 0.000000 0.000000 0.000000 15.631601 9.748877 -0.126066 49.486484 2.163195 -4.991683 -38.216284 87.410279 -39.570236 0.000000 0.000000 0.000000 
-0.057348 0.945804 -0.063424 -0.983002 -9.433999 0.718605 13.848018 0.177423 2.883790 -5.139205 0.666165 -0.843365 12.036671 22.787871 15.473414 0.000000 0.000000 0.000000 -7.809895 0.667152 -8.759136 4.039651 -0.209746 8.601543 -1.855893 -9.532247 11.590125 0.000000 0.000000 0.000000 3.230713 -0.798646 13.002638 10.454785 -2.068869 -23.442118 -2.671430 -11.899419 25.394373 -1.193153 -0.486143 -26.065382 0.000000 0.000000 0.000000 -28.317506 -4.056692 7.443729 -50.513728 -16.669450 -2.877950 -6.517853 -50.224605 8.446670 0.000000 0.000000 0.000000 16.129408 9.206270 -0.602795 49.330600 1.319439 -5.263377 -68.129593 88.654077 -70.076107 0.000000 0.000000 0.000000 
-0.049729 0.945297 -0.062077 -1.271741 -9.429651 0.506501 13.942214 0.172760 3.518957 -5.444929 0.696972 -1.385103 12.181699 23.043946 15.245190 0.000000 0.000000 0.000000 -7.801091 0.646106 -8.350204 3.730596 -0.167920 8.376841 -1.553443 -9.007810 11.692688 0.000000 0.000000 0.000000 3.074171 -0.766988 12.746594 10.454256 -2.089525 -23.314458 -2.763591 -12.371780 25.448596 -0.826406 -0.766739 -26.176931 0.000000 0.000000 0.000000 -28.316332 -3.489952 7.272147 -50.961387 -16.602188 -2.969625 -5.891742 -54.541756 9.443782 0.000000 0.000000 0.000000 15.898731 8.461516 -1.042215 49.475230 1.367965 -5.262891 -131.566740 88.139128 -133.759992 0.000000 0.000000 0.000000 
-0.042424 0.945062 -0.061156 -1.550553 -9.278925 0.450975 13.971074 0.160520 3.847118 -5.750370 0.726613 -1.737774 12.536867 23.576019 15.296273 0.000000 0.000000 0.000000 -7.678652 0.633849 -8.100763 3.287388 -0.116905 7.853903 -1.198691 -8.559918 12.332888 0.000000 0.000000 0.000000 2.660540 -0.712081 12.526196 10.637675 -2.092858 -23.595550 -3.005814 -12.700287 25.840047 -0.711904 -0.885818 -26.108434 0.000000 0.000000 0.000000 -28.685244 -3.260857 7.296435 -50.775027 -16.455260 -3.140653 -5.745894 -59.781972 10.832398 0.000000 0.000000 0.000000 15.883563 8.033091 -1.301594 49.150739 1.646907 -5.127222 -136.314163 86.514611 -137.607236 0.000000 0.000000 0.000000 
-0.035663 0.944766 -0.060602 -1.751312 -9.150701 0.482582 13.997908 0.150429 3.990923 -6.023022 0.753009 -1.999667 12.572719 23.686206 14.925826 0.000000 0.000000 0.000000 -7.620701 0.623563 -7.871800 2.841549 -0.062052 7.507732 -0.888438 -7.959708 12.279217 0.000000 0.000000 0.000000 2.317513 -0.670018 12.393149 10.486029 -2.080970 -23.422673 -3.090225 -13.082059 25.599027 -0.630434 -0.957992 -26.352872 0.000000 0.000000 0.000000 -28.420862 -3.025591 7.203118 -51.285223 -16.785792 -2.961714 -6.316775 -65.182618 12.941583 0.000000 0.000000 0.000000 15.638056 7.747463 -1.464700 49.105080 2.545906 -4.749141 -137.231287 84.255590 -137.208775 0.000000 0.000000 0.000000 
